<svg width="15" height="15" viewBox="0 0 15 15" fill="none" xmlns="http://www.w3.org/2000/svg">
<path d="M6.86543 9.20918L12.4904 3.58418C12.5122 3.5624 12.5381 3.54513 12.5665 3.53335C12.595 3.52156 12.6255 3.51549 12.6562 3.51549C12.687 3.51549 12.7175 3.52156 12.746 3.53335C12.7744 3.54513 12.8003 3.5624 12.8221 3.58418C12.8438 3.60596 12.8611 3.63181 12.8729 3.66026C12.8847 3.68871 12.8908 3.7192 12.8908 3.75C12.8908 3.7808 12.8847 3.81129 12.8729 3.83974C12.8611 3.86819 12.8438 3.89404 12.8221 3.91582L7.19707 9.54082C7.15309 9.5848 7.09345 9.60951 7.03125 9.60951C6.96906 9.60951 6.90941 9.5848 6.86543 9.54082C6.82145 9.49684 6.79674 9.43719 6.79674 9.375C6.79674 9.31281 6.82145 9.25316 6.86543 9.20918ZM7.5 4.92188C7.93267 4.92146 8.36251 4.99152 8.77266 5.1293C8.80248 5.14286 8.83482 5.15002 8.86758 5.15031C8.90035 5.1506 8.93281 5.14402 8.96287 5.13099C8.99293 5.11796 9.01993 5.09877 9.04212 5.07466C9.06431 5.05056 9.08119 5.02207 9.09169 4.99103C9.10219 4.95999 9.10606 4.9271 9.10306 4.89447C9.10006 4.86184 9.09025 4.83021 9.07426 4.80161C9.05828 4.77301 9.03648 4.74807 9.01026 4.72842C8.98405 4.70877 8.95401 4.69483 8.92207 4.6875C8.25234 4.46181 7.5385 4.39876 6.83958 4.50358C6.14065 4.60839 5.47671 4.87805 4.90264 5.29027C4.32857 5.70249 3.86085 6.24542 3.53816 6.87419C3.21547 7.50296 3.04707 8.19951 3.04688 8.90625C3.04703 9.07146 3.05603 9.23654 3.07383 9.40078C3.0802 9.45837 3.10768 9.51156 3.15096 9.55008C3.19425 9.5886 3.25026 9.60973 3.3082 9.60938H3.33457C3.36521 9.60602 3.39488 9.59666 3.4219 9.58182C3.44891 9.56698 3.47273 9.54696 3.492 9.52291C3.51127 9.49885 3.5256 9.47123 3.53418 9.44163C3.54276 9.41202 3.54541 9.38102 3.54199 9.35039C3.4795 8.7933 3.53527 8.2293 3.70566 7.69524C3.87604 7.16118 4.1572 6.66908 4.53077 6.25111C4.90433 5.83314 5.36189 5.4987 5.87354 5.26965C6.38519 5.0406 6.93942 4.92209 7.5 4.92188ZM13.135 6.02461C13.122 5.99547 13.1033 5.96927 13.0799 5.94762C13.0565 5.92597 13.0289 5.90932 12.9989 5.89869C12.9688 5.88805 12.9369 5.88366 12.9051 5.88578C12.8733 5.8879 12.8423 5.89649 12.8139 5.91101C12.7855 5.92554 12.7604 5.9457 12.7401 5.97027C12.7198 5.99483 12.7047 6.02328 12.6958 6.05388C12.6868 6.08448 12.6842 6.11658 12.6881 6.14821C12.692 6.17985 12.7023 6.21037 12.7184 6.23789C13.0797 6.94695 13.2933 7.72198 13.3463 8.51604C13.3993 9.3101 13.2905 10.1066 13.0266 10.8574C13.0107 10.9037 12.9807 10.9438 12.9409 10.9721C12.9011 11.0005 12.8534 11.0157 12.8045 11.0156H2.19492C2.14579 11.0151 2.09803 10.9993 2.05818 10.9706C2.01832 10.9419 1.98832 10.9015 1.97227 10.8551C1.58314 9.74952 1.53433 8.5527 1.83215 7.41912C2.12997 6.28555 2.76074 5.26727 3.64303 4.49574C4.52531 3.72422 5.61861 3.23486 6.78177 3.09086C7.94494 2.94686 9.12456 3.15482 10.1684 3.68789C10.1958 3.70299 10.2261 3.71241 10.2573 3.71561C10.2885 3.7188 10.32 3.71571 10.35 3.7065C10.38 3.69729 10.4078 3.68216 10.4318 3.662C10.4558 3.64184 10.4756 3.61706 10.4899 3.58914C10.5041 3.56122 10.5127 3.53071 10.5149 3.49943C10.5172 3.46815 10.5132 3.43673 10.5031 3.40704C10.493 3.37734 10.477 3.34998 10.4562 3.32656C10.4353 3.30314 10.41 3.28415 10.3816 3.2707C9.50787 2.82188 8.54087 2.58464 7.55859 2.57812H7.5C6.48818 2.57865 5.49122 2.82166 4.59265 3.2868C3.69408 3.75193 2.92006 4.42564 2.33546 5.25148C1.75085 6.07732 1.37267 7.03124 1.23262 8.03332C1.09256 9.0354 1.19469 10.0565 1.53047 11.0109C1.57876 11.1488 1.66857 11.2684 1.78754 11.3531C1.90652 11.4379 2.04883 11.4838 2.19492 11.4844H12.8045C12.9502 11.4847 13.0923 11.4398 13.2114 11.3558C13.3304 11.2718 13.4204 11.153 13.4689 11.0156C13.754 10.2048 13.8714 9.34455 13.814 8.48701C13.7566 7.62947 13.5256 6.79253 13.135 6.02695V6.02461Z" fill="black"/>
</svg>
